<svg width="60" height="60" viewBox="0 0 60 60" fill="none" xmlns="http://www.w3.org/2000/svg">
<path d="M46.4297 35.1406V13.3555C46.4297 12.2509 45.5343 11.3555 44.4297 11.3555H15.5781C14.4736 11.3555 13.5781 12.2509 13.5781 13.3555V35.1406M46.4297 35.1406H13.5781M46.4297 35.1406L51.1805 45.8345C51.768 47.157 50.7999 48.6465 49.3527 48.6465H10.6551C9.20793 48.6465 8.23981 47.157 8.82735 45.8345L13.5781 35.1406" stroke="url(#paint0_linear_1395_697)"/>
<path d="M46.4297 35.1406V13.3555C46.4297 12.2509 45.5343 11.3555 44.4297 11.3555H15.5781C14.4736 11.3555 13.5781 12.2509 13.5781 13.3555V35.1406M46.4297 35.1406H13.5781M46.4297 35.1406L51.1805 45.8345C51.768 47.157 50.7999 48.6465 49.3527 48.6465H10.6551C9.20793 48.6465 8.23981 47.157 8.82735 45.8345L13.5781 35.1406" stroke="white" stroke-opacity="0.53"/>
<defs>
<linearGradient id="paint0_linear_1395_697" x1="0.195386" y1="9.75322" x2="44.4565" y2="68.6961" gradientUnits="userSpaceOnUse">
<stop stop-color="#5200FF"/>
<stop offset="0.0233555" stop-color="#FF008A"/>
<stop offset="0.336875" stop-color="#FEFFC5"/>
<stop offset="0.585774" stop-color="#FEFFC5"/>
<stop offset="1" stop-color="#001AFF"/>
</linearGradient>
</defs>
</svg>
