<svg width="251" height="57" viewBox="0 0 251 57" fill="none" xmlns="http://www.w3.org/2000/svg">
<mask id="path-1-outside-1_1391_688" maskUnits="userSpaceOnUse" x="0" y="0" width="251" height="57" fill="black">
<rect fill="white" width="251" height="57"/>
<path d="M25.8663 55.9192L33.2995 29.4207L1 14.5915L34.8135 25.5373L47.2773 1L39.8441 27.4986C39.8441 27.4986 98.9916 54.6574 185.254 34.2531C105.973 55.7565 38.3301 31.3819 38.3301 31.3819L25.8663 55.9192Z"/>
<path d="M93.7137 12.9973L50.8359 7.55905L105.957 7.5571L83.0417 32.2673H75.5987L93.7137 12.9973Z"/>
<path d="M104.861 15.4552H111.099L110.204 18.2081C111.197 17.203 112.261 16.4384 113.396 15.914C114.538 15.3678 115.753 15.0947 117.039 15.0947C117.2 15.0947 117.372 15.0947 117.556 15.0947C117.763 15.0947 117.985 15.1165 118.224 15.1602L116.382 20.8298C115.683 20.4366 114.85 20.2399 113.886 20.2399C112.438 20.2399 111.212 20.655 110.207 21.4853C109.233 22.2937 108.49 23.4844 107.979 25.0575L105.636 32.2673H99.3989L104.861 15.4552Z"/>
<path d="M124.189 23.8121C124.011 24.3583 123.948 24.8717 123.998 25.3524C124.056 25.8112 124.2 26.2154 124.431 26.565C124.685 26.9145 125.022 27.1876 125.44 27.3843C125.882 27.5809 126.39 27.6792 126.964 27.6792C127.515 27.6792 128.064 27.5809 128.61 27.3843C129.18 27.1876 129.693 26.9145 130.152 26.565C130.633 26.2154 131.051 25.8112 131.407 25.3524C131.786 24.8936 132.06 24.402 132.231 23.8777C132.401 23.3533 132.446 22.8617 132.365 22.4029C132.315 21.9222 132.162 21.5071 131.909 21.1576C131.678 20.808 131.341 20.5349 130.9 20.3383C130.481 20.1416 129.996 20.0433 129.445 20.0433C128.871 20.0433 128.299 20.1416 127.73 20.3383C127.183 20.5349 126.67 20.808 126.188 21.1576C125.73 21.5071 125.323 21.9113 124.967 22.3701C124.619 22.8071 124.359 23.2877 124.189 23.8121ZM134.761 15.4552H141.032L135.57 32.2673H129.298L129.905 30.3993C128.054 31.9942 125.992 32.7917 123.718 32.7917C122.431 32.7917 121.319 32.5732 120.381 32.1362C119.451 31.6774 118.715 31.0438 118.173 30.2355C117.632 29.4271 117.309 28.4767 117.205 27.3843C117.123 26.2919 117.292 25.1011 117.71 23.8121C118.101 22.6105 118.688 21.4744 119.473 20.4038C120.264 19.3114 121.182 18.361 122.225 17.5526C123.269 16.7442 124.405 16.1106 125.634 15.6518C126.87 15.1712 128.143 14.9308 129.452 14.9308C131.657 14.9308 133.246 15.6627 134.218 17.1266L134.761 15.4552Z"/>
<path d="M156.844 20.8954C155.992 20.1962 155.014 19.8467 153.912 19.8467C153.314 19.8467 152.719 19.945 152.127 20.1416C151.558 20.3382 151.018 20.6223 150.506 20.9937C150.002 21.3433 149.554 21.7693 149.161 22.2718C148.798 22.7525 148.517 23.2987 148.318 23.9104C148.127 24.5003 148.052 25.0465 148.096 25.549C148.17 26.0297 148.33 26.4557 148.577 26.8272C148.854 27.1767 149.224 27.4498 149.689 27.6465C150.153 27.8431 150.684 27.9414 151.281 27.9414C152.453 27.9414 153.668 27.5591 154.928 26.7944L153.288 31.8413C151.543 32.4749 149.981 32.7917 148.603 32.7917C147.316 32.7917 146.155 32.5841 145.118 32.169C144.104 31.7539 143.274 31.164 142.626 30.3993C142.009 29.6128 141.61 28.6842 141.429 27.6137C141.256 26.5213 141.386 25.3087 141.819 23.976C142.252 22.6432 142.898 21.4307 143.759 20.3383C144.626 19.224 145.624 18.2736 146.753 17.4871C147.888 16.6787 149.124 16.056 150.461 15.6191C151.828 15.1602 153.2 14.9308 154.578 14.9308C156.095 14.9308 157.397 15.2367 158.484 15.8485L156.844 20.8954Z"/>
<path d="M172.657 5.0664L167.311 21.5181L175.828 15.4552H184.374L172.995 23.2222L179.429 32.2673H170.676L166.044 25.4179L163.819 32.2673H157.582L166.42 5.0664H172.657Z"/>
<path d="M197.012 21.4197C197.075 20.5895 196.867 19.9231 196.387 19.4206C195.907 18.9181 195.207 18.6669 194.288 18.6669C193.324 18.6669 192.453 18.9072 191.676 19.3879C190.923 19.8685 190.324 20.5458 189.879 21.4197H197.012ZM188.589 24.8608C187.758 27.4171 188.606 28.6952 191.133 28.6952C192.489 28.6952 193.681 28.1708 194.711 27.1221H200.742C198.275 30.9674 194.606 32.89 189.736 32.89C188.243 32.89 186.943 32.6825 185.838 32.2673C184.739 31.8304 183.87 31.2186 183.229 30.4321C182.612 29.6456 182.239 28.7061 182.112 27.6137C181.984 26.5213 182.141 25.2978 182.581 23.9432C183.035 22.5449 183.673 21.2886 184.495 20.1744C185.323 19.0383 186.29 18.077 187.396 17.2904C188.501 16.5039 189.719 15.9031 191.048 15.488C192.408 15.051 193.846 14.8325 195.362 14.8325C196.855 14.8325 198.128 15.051 199.181 15.488C200.24 15.9031 201.052 16.5148 201.617 17.3232C202.181 18.1316 202.49 19.1257 202.543 20.3055C202.603 21.4634 202.395 22.7743 201.92 24.2381L201.718 24.8608H188.589Z"/>
<path d="M214.575 15.4542H208.338L202.875 32.2664H209.112L210.588 27.6127C213.761 17.8483 238.75 3.40926 250.118 1.12891C250.118 1.12891 227.646 5.06544 213.68 18.2071L214.575 15.4542Z"/>
</mask>
<path d="M25.8663 55.9192L33.2995 29.4207L1 14.5915L34.8135 25.5373L47.2773 1L39.8441 27.4986C39.8441 27.4986 98.9916 54.6574 185.254 34.2531C105.973 55.7565 38.3301 31.3819 38.3301 31.3819L25.8663 55.9192Z" stroke="black" stroke-width="1" mask="url(#path-1-outside-1_1391_688)"/>
<path d="M93.7137 12.9973L50.8359 7.55905L105.957 7.5571L83.0417 32.2673H75.5987L93.7137 12.9973Z" stroke="black" stroke-width="1" mask="url(#path-1-outside-1_1391_688)"/>
<path d="M104.861 15.4552H111.099L110.204 18.2081C111.197 17.203 112.261 16.4384 113.396 15.914C114.538 15.3678 115.753 15.0947 117.039 15.0947C117.2 15.0947 117.372 15.0947 117.556 15.0947C117.763 15.0947 117.985 15.1165 118.224 15.1602L116.382 20.8298C115.683 20.4366 114.85 20.2399 113.886 20.2399C112.438 20.2399 111.212 20.655 110.207 21.4853C109.233 22.2937 108.49 23.4844 107.979 25.0575L105.636 32.2673H99.3989L104.861 15.4552Z" stroke="black" stroke-width="1" mask="url(#path-1-outside-1_1391_688)"/>
<path d="M124.189 23.8121C124.011 24.3583 123.948 24.8717 123.998 25.3524C124.056 25.8112 124.2 26.2154 124.431 26.565C124.685 26.9145 125.022 27.1876 125.44 27.3843C125.882 27.5809 126.39 27.6792 126.964 27.6792C127.515 27.6792 128.064 27.5809 128.61 27.3843C129.18 27.1876 129.693 26.9145 130.152 26.565C130.633 26.2154 131.051 25.8112 131.407 25.3524C131.786 24.8936 132.06 24.402 132.231 23.8777C132.401 23.3533 132.446 22.8617 132.365 22.4029C132.315 21.9222 132.162 21.5071 131.909 21.1576C131.678 20.808 131.341 20.5349 130.9 20.3383C130.481 20.1416 129.996 20.0433 129.445 20.0433C128.871 20.0433 128.299 20.1416 127.73 20.3383C127.183 20.5349 126.67 20.808 126.188 21.1576C125.73 21.5071 125.323 21.9113 124.967 22.3701C124.619 22.8071 124.359 23.2877 124.189 23.8121ZM134.761 15.4552H141.032L135.57 32.2673H129.298L129.905 30.3993C128.054 31.9942 125.992 32.7917 123.718 32.7917C122.431 32.7917 121.319 32.5732 120.381 32.1362C119.451 31.6774 118.715 31.0438 118.173 30.2355C117.632 29.4271 117.309 28.4767 117.205 27.3843C117.123 26.2919 117.292 25.1011 117.71 23.8121C118.101 22.6105 118.688 21.4744 119.473 20.4038C120.264 19.3114 121.182 18.361 122.225 17.5526C123.269 16.7442 124.405 16.1106 125.634 15.6518C126.87 15.1712 128.143 14.9308 129.452 14.9308C131.657 14.9308 133.246 15.6627 134.218 17.1266L134.761 15.4552Z" stroke="black" stroke-width="1" mask="url(#path-1-outside-1_1391_688)"/>
<path d="M156.844 20.8954C155.992 20.1962 155.014 19.8467 153.912 19.8467C153.314 19.8467 152.719 19.945 152.127 20.1416C151.558 20.3382 151.018 20.6223 150.506 20.9937C150.002 21.3433 149.554 21.7693 149.161 22.2718C148.798 22.7525 148.517 23.2987 148.318 23.9104C148.127 24.5003 148.052 25.0465 148.096 25.549C148.17 26.0297 148.33 26.4557 148.577 26.8272C148.854 27.1767 149.224 27.4498 149.689 27.6465C150.153 27.8431 150.684 27.9414 151.281 27.9414C152.453 27.9414 153.668 27.5591 154.928 26.7944L153.288 31.8413C151.543 32.4749 149.981 32.7917 148.603 32.7917C147.316 32.7917 146.155 32.5841 145.118 32.169C144.104 31.7539 143.274 31.164 142.626 30.3993C142.009 29.6128 141.61 28.6842 141.429 27.6137C141.256 26.5213 141.386 25.3087 141.819 23.976C142.252 22.6432 142.898 21.4307 143.759 20.3383C144.626 19.224 145.624 18.2736 146.753 17.4871C147.888 16.6787 149.124 16.056 150.461 15.6191C151.828 15.1602 153.2 14.9308 154.578 14.9308C156.095 14.9308 157.397 15.2367 158.484 15.8485L156.844 20.8954Z" stroke="black" stroke-width="1" mask="url(#path-1-outside-1_1391_688)"/>
<path d="M172.657 5.0664L167.311 21.5181L175.828 15.4552H184.374L172.995 23.2222L179.429 32.2673H170.676L166.044 25.4179L163.819 32.2673H157.582L166.42 5.0664H172.657Z" stroke="black" stroke-width="1" mask="url(#path-1-outside-1_1391_688)"/>
<path d="M197.012 21.4197C197.075 20.5895 196.867 19.9231 196.387 19.4206C195.907 18.9181 195.207 18.6669 194.288 18.6669C193.324 18.6669 192.453 18.9072 191.676 19.3879C190.923 19.8685 190.324 20.5458 189.879 21.4197H197.012ZM188.589 24.8608C187.758 27.4171 188.606 28.6952 191.133 28.6952C192.489 28.6952 193.681 28.1708 194.711 27.1221H200.742C198.275 30.9674 194.606 32.89 189.736 32.89C188.243 32.89 186.943 32.6825 185.838 32.2673C184.739 31.8304 183.87 31.2186 183.229 30.4321C182.612 29.6456 182.239 28.7061 182.112 27.6137C181.984 26.5213 182.141 25.2978 182.581 23.9432C183.035 22.5449 183.673 21.2886 184.495 20.1744C185.323 19.0383 186.29 18.077 187.396 17.2904C188.501 16.5039 189.719 15.9031 191.048 15.488C192.408 15.051 193.846 14.8325 195.362 14.8325C196.855 14.8325 198.128 15.051 199.181 15.488C200.24 15.9031 201.052 16.5148 201.617 17.3232C202.181 18.1316 202.49 19.1257 202.543 20.3055C202.603 21.4634 202.395 22.7743 201.92 24.2381L201.718 24.8608H188.589Z" stroke="black" stroke-width="1" mask="url(#path-1-outside-1_1391_688)"/>
<path d="M214.575 15.4542H208.338L202.875 32.2664H209.112L210.588 27.6127C213.761 17.8483 238.75 3.40926 250.118 1.12891C250.118 1.12891 227.646 5.06544 213.68 18.2071L214.575 15.4542Z" stroke="black" stroke-width="1" mask="url(#path-1-outside-1_1391_688)"/>
</svg>
